<svg xmlns="http://www.w3.org/2000/svg" width="16" height="16" viewBox="0 0 16 16"><path fill="#676b73" d="M3.05 3.05Q5.1 1 8 1Q10.9 1 12.95 3.05Q15 5.1 15 8Q15 10.9 12.95 12.95Q10.9 15 8 15Q5.1 15 3.05 12.95Q1 10.9 1 8Q1 5.1 3.05 3.05ZM6.28 2.67Q6.2 2.67 6.2 2.78V7.92H2.75Q2.64 7.92 2.64 8.01Q2.64 8.11 2.75 8.11H7.89V13.25Q7.89 13.36 7.99 13.36Q8.08 13.36 8.08 13.25V8.11H13.22Q13.3 8.11 13.3 8.01Q13.3 7.92 13.22 7.92H9.75V2.78Q9.75 2.67 9.64 2.67Q9.53 2.67 9.53 2.78V7.92H6.41V2.78Q6.41 2.67 6.33 2.67ZM7.95 4.96Q7.67 4.94 7.44 5.09Q7.21 5.24 7.21 5.48Q7.18 5.68 7.29 5.85Q7.41 6.04 7.56 6.09Q7.64 6.11 7.97 6.21Q8.29 6.3 8.41 6.44Q8.55 6.61 8.44 6.81Q8.33 7.02 8.11 7.02Q7.84 7.06 7.6 6.91Q7.38 6.75 7.34 6.47Q7.25 6.41 7.17 6.46Q7.08 6.5 7.12 6.61V6.89V7.18Q7.25 7.29 7.45 7.04Q7.73 7.23 8.05 7.23Q8.38 7.23 8.63 7.07Q8.93 6.88 8.88 6.5Q8.83 6.12 8.49 6Q8.39 5.94 8.1 5.85Q7.78 5.76 7.64 5.65Q7.48 5.46 7.64 5.28Q7.81 5.1 8.05 5.18Q8.25 5.18 8.41 5.33Q8.57 5.48 8.57 5.68Q8.66 5.73 8.74 5.69Q8.82 5.65 8.79 5.54V5.28Q8.79 5.04 8.77 4.99Q8.68 4.94 8.56 5.05Q8.44 5.16 8.36 5.07Q8.16 4.96 7.95 4.96ZM10.35 4.99Q10.24 5.02 10.32 5.18Q10.36 5.24 10.41 5.21Q10.54 5.18 10.6 5.24Q10.65 5.29 10.62 5.4V6.17V6.93Q10.57 6.99 10.47 6.97Q10.37 6.96 10.32 6.99Q10.27 7.1 10.34 7.15Q10.41 7.21 10.52 7.18H10.95H11.36Q11.45 7.1 11.39 7Q11.34 6.91 11.23 6.96Q11.12 6.99 11.06 6.95Q11.01 6.9 11.04 6.8Q11.04 6.78 11.03 6.75Q11.03 6.71 11.02 6.65Q11.02 6.58 11.02 6.52Q11.01 6.3 11.04 6.28Q11.11 6.25 11.39 6.25Q11.66 6.25 11.8 6.2Q12.13 6.11 12.21 5.74Q12.29 5.38 12.05 5.16Q11.92 5.05 11.75 5.02Q11.6 4.99 11.28 4.99H10.95H10.65ZM3.71 4.99Q3.6 5.02 3.65 5.18Q3.69 5.24 3.76 5.21Q3.98 5.27 3.98 5.32V6.14V6.93Q3.95 6.98 3.87 6.97Q3.79 6.97 3.72 6.97Q3.65 6.98 3.65 7.07Q3.62 7.15 3.68 7.18Q3.73 7.21 3.84 7.21H3.93Q3.97 7.18 4.53 7.19Q5.09 7.21 5.13 7.18Q5.38 7.15 5.55 7.02Q5.73 6.88 5.73 6.66Q5.79 6.41 5.61 6.25Q5.44 6.09 5.18 6.06Q5.33 6.02 5.5 5.88Q5.68 5.72 5.65 5.54Q5.65 5.31 5.48 5.18Q5.32 5.05 5.1 5.02Q5.05 4.99 4.49 4.99H3.87H3.79ZM11.45 5.21Q11.64 5.21 11.73 5.38Q11.83 5.54 11.75 5.73Q11.75 5.89 11.61 5.98Q11.47 6.06 11.31 6.03H11.17Q11.06 6.03 11.02 6Q10.98 5.97 11.01 5.89V5.57V5.24Q11.01 5.21 11.17 5.21H11.34H11.39ZM4.91 5.21Q5.07 5.21 5.18 5.38Q5.29 5.53 5.24 5.7Q5.18 5.98 4.72 5.95H4.55Q4.39 5.95 4.39 5.92Q4.39 5.79 4.36 5.24Q4.41 5.21 4.47 5.21H4.58H4.69H4.86ZM4.91 6.17Q5.09 6.17 5.21 6.35Q5.32 6.52 5.27 6.69Q5.18 7.02 4.72 6.96H4.55H4.36Q4.34 6.93 4.35 6.7Q4.35 6.63 4.35 6.57Q4.36 6.51 4.36 6.48Q4.36 6.45 4.36 6.44L4.35 6.33Q4.34 6.22 4.36 6.18Q4.4 6.14 4.47 6.17H4.86ZM6.58 8.93H6.25H5.95Q5.89 9.07 6.06 9.15Q6.09 9.18 6.11 9.18Q6.11 9.22 6.1 9.29Q6.09 9.33 6.04 9.42Q6 9.5 6 9.53Q5.98 9.57 5.94 9.7Q5.89 9.83 5.87 9.86Q5.84 9.91 5.81 9.89Q5.74 9.74 5.68 9.53Q5.61 9.33 5.54 9.15Q5.68 9.18 5.73 9.09Q5.79 9.01 5.7 8.93H5.36H4.99Q4.88 9.11 5.18 9.15Q5.58 10.27 5.62 10.41Q5.89 10.45 5.89 10.3Q5.97 10.13 6.06 9.91L6.22 9.5Q6.33 9.77 6.33 9.79Q6.38 9.93 6.46 10.11Q6.51 10.24 6.55 10.38Q6.67 10.43 6.76 10.39Q6.85 10.35 6.85 10.21Q7.21 9.24 7.23 9.15L7.32 9.13Q7.39 9.13 7.43 9.09Q7.45 9.07 7.43 8.98Q7.43 8.93 7.37 8.92Q7.32 8.9 7.25 8.92Q7.15 8.93 7.12 8.93H6.97H6.82Q6.74 9.12 7.02 9.15Q6.87 9.59 6.71 9.97Q6.69 9.83 6.59 9.56Q6.5 9.29 6.47 9.15Q6.58 9.18 6.62 9.08Q6.66 8.98 6.58 8.93ZM9.29 8.93H9.19H9.12H8.9H8.71Q8.66 8.93 8.66 9Q8.66 9.07 8.68 9.11Q8.72 9.15 8.79 9.12Q8.85 9.12 8.86 9.18Q8.88 9.23 8.86 9.31Q8.85 9.39 8.88 9.42Q8.85 9.5 8.85 9.76Q8.85 10.04 8.82 10.19H8.77H8.67Q8.63 10.19 8.6 10.23Q8.57 10.27 8.6 10.35Q8.6 10.38 8.66 10.39Q8.71 10.41 8.77 10.39Q8.83 10.38 8.88 10.41Q8.9 10.38 9.07 10.39Q9.23 10.41 9.26 10.38Q9.31 10.3 9.27 10.23Q9.23 10.16 9.15 10.19Q9.07 10.19 9.05 10.15Q9.04 10.11 9.05 10.01Q9.05 9.99 9.06 9.96Q9.06 9.93 9.06 9.91Q9.07 9.89 9.07 9.89V9.59Q9.07 9.35 9.09 9.23Q9.18 9.45 9.3 9.85Q9.41 10.2 9.48 10.38Q9.8 10.51 9.8 10.27Q10.04 9.54 10.13 9.26Q10.13 9.58 10.16 10.16Q10.13 10.19 10.06 10.19Q9.99 10.19 9.96 10.21Q9.91 10.25 9.94 10.3Q9.91 10.38 9.96 10.39Q10 10.41 10.08 10.39Q10.09 10.39 10.11 10.39Q10.13 10.39 10.15 10.38Q10.16 10.38 10.17 10.38Q10.18 10.38 10.19 10.38Q10.2 10.38 10.24 10.38Q10.28 10.39 10.34 10.39Q10.41 10.39 10.47 10.39Q10.71 10.41 10.73 10.38Q10.76 10.3 10.72 10.23Q10.68 10.16 10.6 10.19Q10.54 10.19 10.53 10.13Q10.52 10.06 10.52 10.02V9.91Q10.52 9.89 10.51 9.84Q10.51 9.8 10.51 9.71Q10.5 9.63 10.5 9.56Q10.49 9.19 10.49 9.15Q10.59 9.15 10.67 9.09Q10.73 9.05 10.65 8.93H10.05Q10 8.98 9.96 9.12L9.91 9.26Q9.86 9.38 9.79 9.57Q9.74 9.7 9.7 9.89Q9.61 9.73 9.53 9.42Q9.46 9.14 9.39 9.01Q9.39 8.93 9.29 8.93Z"/></svg>
