<svg xmlns="http://www.w3.org/2000/svg" width="16" height="16" viewBox="0 0 16 16"><path fill="#f2c481" d="M4.26 3.46Q4.46 3.46 4.67 3.56L12.26 7.36Q12.43 7.44 12.52 7.55H14.62Q14.78 7.55 14.89 7.66Q15 7.77 15 7.93V8.08Q15 8.24 14.89 8.36Q14.78 8.47 14.62 8.47H12.51Q12.42 8.57 12.26 8.65L4.67 12.45Q4.37 12.57 4.08 12.54Q3.79 12.5 3.59 12.29Q3.38 12.08 3.38 11.8V10.45H1.38Q1.22 10.45 1.11 10.33Q1 10.22 1 10.05V9.91Q1 9.75 1.11 9.63Q1.22 9.52 1.38 9.52H3.38V6.5H1.38Q1.22 6.5 1.11 6.39Q1 6.28 1 6.11V5.96Q1 5.8 1.11 5.69Q1.22 5.57 1.38 5.57H3.38V4.21Q3.38 3.89 3.63 3.67Q3.89 3.45 4.26 3.46ZM6.08 6.36 6.09 7.68H4.77V8.34H6.08V9.65H6.75V8.34H8.06V7.68H6.75V6.36Z"/></svg>
