<svg xmlns="http://www.w3.org/2000/svg" width="16" height="16" viewBox="0 0 16 16"><path fill="#7b7e84" d="M13.18 10.74Q13.58 10.97 13.81 11.37Q14.05 11.77 14.05 12.23Q14.05 12.94 13.54 13.45Q13.03 13.96 12.32 13.96Q11.61 13.96 11.1 13.45Q10.6 12.94 10.6 12.23Q10.6 11.76 10.83 11.37Q11.06 10.97 11.45 10.74V5.32Q11.45 5.28 11.44 5.22Q11.43 5.16 11.37 5.01Q11.32 4.86 11.23 4.75Q11.14 4.64 10.98 4.55Q10.81 4.45 10.6 4.45H9.73V6.18L7.13 3.6L9.73 1V2.73H10.6Q10.65 2.73 10.74 2.74Q10.84 2.74 11.11 2.79Q11.38 2.84 11.62 2.93Q11.86 3.02 12.16 3.21Q12.46 3.41 12.68 3.67Q12.89 3.93 13.04 4.36Q13.18 4.79 13.18 5.32ZM11.71 12.85Q11.96 13.1 12.32 13.1Q12.68 13.1 12.93 12.85Q13.18 12.59 13.18 12.23Q13.18 11.87 12.93 11.62Q12.68 11.37 12.32 11.37Q11.96 11.37 11.71 11.62Q11.45 11.87 11.45 12.23Q11.45 12.59 11.71 12.85ZM2.82 5.26Q2.42 5.03 2.19 4.63Q1.95 4.24 1.95 3.78Q1.95 3.06 2.46 2.56Q2.97 2.05 3.68 2.05Q4.39 2.05 4.9 2.56Q5.41 3.06 5.41 3.78Q5.41 4.25 5.18 4.64Q4.94 5.03 4.55 5.26V10.68Q4.55 10.72 4.56 10.78Q4.57 10.84 4.63 10.99Q4.69 11.14 4.78 11.25Q4.86 11.36 5.03 11.45Q5.2 11.55 5.41 11.55H6.27V9.82L8.87 12.41L6.27 15V13.28H5.41Q5.36 13.28 5.27 13.27Q5.17 13.27 4.9 13.22Q4.63 13.17 4.39 13.08Q4.14 12.99 3.84 12.79Q3.54 12.59 3.33 12.33Q3.11 12.07 2.96 11.64Q2.82 11.21 2.82 10.68ZM3.07 4.42Q3.32 4.68 3.68 4.68Q4.04 4.68 4.29 4.42Q4.55 4.17 4.55 3.81Q4.55 3.45 4.29 3.2Q4.04 2.94 3.68 2.94Q3.32 2.94 3.07 3.2Q2.82 3.45 2.82 3.81Q2.82 4.17 3.07 4.42Z"/></svg>
