<svg xmlns="http://www.w3.org/2000/svg" width="16" height="16" viewBox="0 0 16 16"><path fill="#9347a8" d="M11.3 1.04Q11.31 1.04 11.32 1.04Q11.32 1.04 11.32 1.04H11.35H11.37Q11.47 1.06 11.62 1.13L14.5 2.51L14.57 2.55Q14.57 2.55 14.58 2.56Q14.59 2.56 14.59 2.56Q14.6 2.56 14.61 2.57Q14.62 2.58 14.63 2.58L14.65 2.6Q14.65 2.61 14.66 2.62Q14.68 2.62 14.68 2.63Q14.69 2.63 14.7 2.64Q14.71 2.64 14.71 2.65L14.74 2.68L14.76 2.7Q14.76 2.7 14.77 2.71Q14.78 2.73 14.79 2.73Q14.79 2.74 14.8 2.74Q14.81 2.74 14.81 2.75Q14.81 2.76 14.82 2.77Q14.83 2.79 14.84 2.79Q14.84 2.79 14.85 2.8Q14.87 2.84 14.89 2.87Q14.89 2.87 14.89 2.88Q14.9 2.88 14.9 2.89Q14.9 2.89 14.91 2.91Q14.91 2.92 14.92 2.92Q14.92 2.93 14.93 2.94Q14.93 2.95 14.93 2.96Q14.93 2.96 14.94 2.97Q14.95 2.99 14.95 2.99Q14.95 3 14.95 3.01Q14.96 3.03 14.96 3.03Q14.96 3.03 14.96 3.05Q14.97 3.06 14.97 3.06Q14.97 3.07 14.97 3.08Q14.97 3.09 14.97 3.09Q14.97 3.09 14.98 3.11Q14.99 3.13 14.99 3.15V3.16Q14.99 3.16 15 3.19Q15 3.21 15 3.21V3.23V3.3V12.7V12.79V12.8Q15 12.8 15 12.82Q14.99 12.84 14.99 12.85Q14.99 12.85 14.99 12.86Q14.98 12.87 14.98 12.88Q14.98 12.88 14.98 12.9Q14.97 12.91 14.97 12.92Q14.97 12.92 14.97 12.94Q14.97 12.95 14.97 12.96Q14.97 12.97 14.96 12.99Q14.96 12.99 14.95 13Q14.95 13.01 14.95 13.01Q14.95 13.02 14.94 13.03Q14.93 13.04 14.93 13.06Q14.93 13.06 14.93 13.07Q14.92 13.08 14.92 13.08Q14.91 13.09 14.91 13.11Q14.9 13.12 14.9 13.13Q14.89 13.14 14.89 13.15Q14.89 13.15 14.88 13.18Q14.86 13.2 14.85 13.2Q14.85 13.21 14.85 13.21Q14.85 13.22 14.84 13.23L14.8 13.26Q14.79 13.26 14.79 13.27Q14.79 13.27 14.79 13.28L14.76 13.32L14.74 13.33L14.71 13.37Q14.71 13.37 14.7 13.37Q14.69 13.38 14.68 13.38L14.65 13.42Q14.64 13.42 14.64 13.42Q14.64 13.42 14.63 13.42Q14.62 13.43 14.61 13.44Q14.6 13.44 14.59 13.45Q14.59 13.45 14.58 13.46Q14.57 13.47 14.57 13.47L14.5 13.5L11.62 14.89Q11.5 14.95 11.35 14.96H11.32H11.25H11.21Q11.12 14.96 11.08 14.96H11.05Q10.95 14.91 10.91 14.89H10.9Q10.88 14.89 10.86 14.88Q10.85 14.87 10.84 14.87Q10.7 14.79 10.62 14.72L5.97 9.57L3.26 11.79L3.03 12Q2.97 12.04 2.85 12.1Q2.85 12.1 2.83 12.11Q2.81 12.11 2.8 12.12Q2.68 12.14 2.67 12.14H2.62H2.61Q2.52 12.14 2.42 12.1L1.36 11.66Q1.28 11.62 1.2 11.56L1.17 11.52Q1.17 11.52 1.16 11.51Q1.15 11.5 1.15 11.49Q1.1 11.45 1.08 11.4L1.05 11.35Q1.05 11.34 1.05 11.33Q1.04 11.32 1.04 11.32L1.02 11.21Q1 11.18 1 11.16V4.85Q1 4.82 1.02 4.79Q1.02 4.77 1.03 4.74Q1.03 4.71 1.04 4.7Q1.04 4.69 1.05 4.68Q1.05 4.67 1.05 4.67L1.08 4.62Q1.09 4.58 1.15 4.51Q1.15 4.51 1.16 4.5Q1.17 4.49 1.17 4.48Q1.17 4.48 1.18 4.47Q1.19 4.47 1.2 4.46Q1.28 4.4 1.36 4.36L2.42 3.91L2.5 3.88H2.53H2.55H2.57H2.58H2.6Q2.61 3.88 2.62 3.88Q2.62 3.88 2.62 3.88Q2.63 3.88 2.65 3.88Q2.68 3.88 2.68 3.88H2.69H2.74Q2.76 3.88 2.81 3.9Q2.84 3.91 2.87 3.93Q2.88 3.93 2.9 3.94Q2.92 3.96 2.93 3.97Q3 4 3.03 4.02L3.26 4.21L5.97 6.44L10.62 1.3Q10.69 1.22 10.83 1.15L10.88 1.13Q10.93 1.09 10.97 1.08Q10.97 1.08 11 1.08Q11.02 1.08 11.03 1.08Q11.04 1.07 11.08 1.06Q11.12 1.06 11.14 1.06Q11.15 1.06 11.18 1.05Q11.21 1.04 11.21 1.04H11.24Q11.25 1.04 11.27 1.04Q11.29 1.04 11.3 1.04ZM11.5 5.04 7.89 8 11.5 10.97ZM2.75 6V10L4.56 8Z"/></svg>
