<svg xmlns="http://www.w3.org/2000/svg" width="16" height="16" viewBox="0 0 16 16"><path fill="#4f7110" d="M1 3.41Q1 2.77 1.45 2.32Q1.9 1.88 2.53 1.88H13.47Q14.1 1.88 14.55 2.32Q15 2.77 15 3.41V12.59Q15 13.23 14.55 13.68Q14.1 14.12 13.47 14.12H2.53Q1.9 14.12 1.45 13.68Q1 13.23 1 12.59ZM2.53 3.19Q2.44 3.19 2.37 3.25Q2.31 3.31 2.31 3.41V12.59Q2.31 12.69 2.37 12.75Q2.44 12.81 2.53 12.81H13.47Q13.56 12.81 13.63 12.75Q13.69 12.69 13.69 12.59V3.41Q13.69 3.31 13.63 3.25Q13.56 3.19 13.47 3.19ZM7.15 8.46 5.18 10.43Q4.99 10.65 4.71 10.65Q4.48 10.65 4.3 10.51Q4.12 10.37 4.07 10.15Q4.05 10.06 4.05 9.98Q4.05 9.7 4.25 9.5L5.76 8L4.25 6.5Q4.04 6.3 4.04 6.02Q4.04 5.79 4.18 5.61Q4.32 5.44 4.54 5.38Q4.62 5.36 4.71 5.36Q4.99 5.36 5.18 5.57L7.15 7.54Q7.34 7.73 7.34 8Q7.34 8.27 7.15 8.46ZM8.66 9.31H11.28Q11.55 9.31 11.75 9.5Q11.94 9.7 11.94 9.97Q11.94 10.24 11.75 10.43Q11.55 10.62 11.28 10.62H8.66Q8.38 10.62 8.19 10.43Q8 10.24 8 9.97Q8 9.7 8.19 9.5Q8.38 9.31 8.66 9.31Z"/></svg>
